<svg xmlns="http://www.w3.org/2000/svg" width="312" height="48"><path fill="none" d="M-.002.157h311.999v47.684H-.002V.157z"/><path fill-rule="evenodd" fill="#1D1D1F" d="M202.433 21.553h4.639c4.53 0 7.605-2.663 7.605-6.369 0-3.707-2.389-6.122-7.056-6.122-4.392 0-7.577 2.333-7.879 6.286h-5.765c.494-6.918 5.902-11.338 13.644-11.338 8.072 0 13.041 4.42 13.041 10.323 0 4.969-3.487 8.291-8.346 9.307v.137c5.82.521 9.718 4.063 9.718 9.609 0 6.973-6.094 11.722-14.358 11.722-8.483 0-14.166-4.694-14.55-11.503h5.902c.302 3.871 3.679 6.369 8.648 6.369 4.832 0 8.072-2.745 8.099-6.588.027-4.53-3.24-7.056-8.538-7.056h-4.804v-4.777zM.659 7.854c0-1.894 1.537-3.405 3.431-3.405 1.895 0 3.432 1.511 3.432 3.405 0 1.866-1.537 3.404-3.432 3.404-1.894 0-3.431-1.538-3.431-3.404zm.466 7.632h5.93v28.881h-5.93V15.486zM28.69 4.751c7.687 0 13.04 5.299 13.04 13.013 0 7.742-5.462 13.068-13.232 13.068h-8.511v13.535h-6.15V4.751H28.69zm-8.703 20.92h7.056c5.353 0 8.401-2.882 8.401-7.879 0-4.996-3.048-7.852-8.374-7.852h-7.083v15.731zm25.96-20.92h5.875v15.567h.137c1.592-3.377 4.75-5.326 9.142-5.326 6.342 0 10.13 4.227 10.13 10.762v18.613h-5.957V26.906c0-4.255-2.141-6.808-6.314-6.808-4.393 0-7.084 3.02-7.084 7.577v16.692h-5.929V4.751zm29.427 25.175c0-9.279 5.463-14.962 13.699-14.962 8.237 0 13.7 5.683 13.7 14.962 0 9.307-5.436 14.99-13.7 14.99-8.263 0-13.699-5.683-13.699-14.99zm21.359 0c0-6.396-3.02-10.075-7.66-10.075-4.639 0-7.659 3.679-7.659 10.075 0 6.425 3.02 10.104 7.659 10.104 4.667 0 7.66-3.679 7.66-10.104zm10.459-14.44h5.656v4.832h.137c1.565-3.295 4.64-5.326 9.087-5.326 6.369 0 10.021 4.063 10.021 10.679v18.696h-5.958V26.824c0-4.337-2.031-6.726-6.15-6.726-4.172 0-6.863 2.965-6.863 7.44v16.829h-5.93V15.486zm55.097 20.398c-.824 5.271-5.82 9.032-12.437 9.032-8.483 0-13.616-5.737-13.616-14.852 0-9.06 5.216-15.1 13.37-15.1 8.016 0 13.012 5.656 13.012 14.413v2.032h-20.397v.357c0 5.024 3.019 8.346 7.769 8.346 3.376 0 5.875-1.702 6.671-4.228h5.628zm-20.041-8.621h14.44c-.137-4.419-2.937-7.522-7.082-7.522-4.146 0-7.056 3.157-7.358 7.522zM250.402 4.751c7.687 0 13.04 5.299 13.04 13.013 0 7.742-5.463 13.068-13.232 13.068h-8.511v13.535h-6.15V4.751h14.853zm-8.703 20.92h7.055c5.354 0 8.401-2.882 8.401-7.879 0-4.996-3.047-7.852-8.373-7.852h-7.083v15.731zm26.414-10.185h5.656V20.4h.137c.961-3.377 3.541-5.381 6.946-5.381.851 0 1.592.137 2.031.22v5.518c-.466-.192-1.509-.33-2.663-.33-3.816 0-6.176 2.554-6.176 6.644v17.296h-5.931V15.486zm15.926 14.44c0-9.279 5.463-14.962 13.699-14.962s13.7 5.683 13.7 14.962c0 9.307-5.436 14.99-13.7 14.99-8.263 0-13.699-5.683-13.699-14.99zm21.359 0c0-6.396-3.02-10.075-7.66-10.075-4.64 0-7.66 3.679-7.66 10.075 0 6.425 3.02 10.104 7.66 10.104 4.667 0 7.66-3.679 7.66-10.104zM181.026 4.776l-8.108 5.61v6.051l8.085-5.745h.078v33.675h5.948V4.776h-6.003z"/></svg>