<svg xmlns="http://www.w3.org/2000/svg" width="223" height="48"><path fill="none" d="M-.007 0H223v48.004H-.007V0z"/><path fill-rule="evenodd" fill="#1D1D1F" d="M202.276 21.589h4.638c4.529 0 7.603-2.662 7.603-6.368 0-3.706-2.388-6.121-7.054-6.121-4.392 0-7.576 2.333-7.877 6.286h-5.765c.494-6.917 5.902-11.336 13.642-11.336 8.07 0 13.038 4.419 13.038 10.32 0 4.968-3.486 8.29-8.344 9.305v.137c5.819.522 9.716 4.063 9.716 9.607 0 6.972-6.093 11.721-14.355 11.721-8.482 0-14.164-4.694-14.547-11.501h5.901c.302 3.87 3.678 6.368 8.646 6.368 4.831 0 8.07-2.745 8.097-6.588.027-4.529-3.239-7.054-8.536-7.054h-4.803v-4.776zM.541 7.892c0-1.893 1.537-3.403 3.431-3.403 1.894 0 3.431 1.51 3.431 3.403 0 1.867-1.537 3.404-3.431 3.404-1.894 0-3.431-1.537-3.431-3.404zm.467 7.631h5.928v28.875H1.008V15.523zM28.567 4.79c7.686 0 13.038 5.298 13.038 13.011 0 7.74-5.462 13.065-13.23 13.065h-8.509v13.532h-6.148V4.79h14.849zm-8.701 20.916h7.054c5.353 0 8.399-2.882 8.399-7.878 0-4.995-3.046-7.85-8.371-7.85h-7.082v15.728zM45.82 4.79h5.874v15.564h.138c1.592-3.376 4.748-5.325 9.14-5.325 6.34 0 10.128 4.227 10.128 10.76v18.609h-5.956V26.941c0-4.254-2.141-6.807-6.313-6.807-4.392 0-7.082 3.02-7.082 7.576v16.688H45.82V4.79zm29.422 25.171c0-9.278 5.462-14.96 13.697-14.96 8.234 0 13.696 5.682 13.696 14.96 0 9.305-5.435 14.986-13.696 14.986-8.262 0-13.697-5.681-13.697-14.986zm21.354 0c0-6.396-3.019-10.074-7.657-10.074-4.639 0-7.659 3.678-7.659 10.074 0 6.423 3.02 10.101 7.659 10.101 4.665 0 7.657-3.678 7.657-10.101zm10.457-14.438h5.655v4.831h.137c1.564-3.294 4.639-5.325 9.086-5.325 6.367 0 10.018 4.062 10.018 10.677v18.692h-5.956V26.859c0-4.337-2.031-6.725-6.149-6.725-4.172 0-6.861 2.964-6.861 7.439v16.825h-5.93V15.523zm55.086 20.394c-.823 5.27-5.819 9.03-12.434 9.03-8.481 0-13.614-5.736-13.614-14.849 0-9.058 5.215-15.097 13.368-15.097 8.014 0 13.009 5.655 13.009 14.411v2.031h-20.393v.357c0 5.023 3.019 8.344 7.767 8.344 3.377 0 5.874-1.702 6.67-4.227h5.627zm-20.037-8.619h14.438c-.137-4.419-2.937-7.521-7.081-7.521-4.145 0-7.055 3.157-7.357 7.521zm38.771-22.483l-8.107 5.609v6.049l8.084-5.743h.077v33.668h5.947V4.815h-6.001z"/></svg>