<svg xmlns="http://www.w3.org/2000/svg" width="221" height="48"><path fill="none" d="M.007-.011h220.998v48.012H.007V-.011z"/><path fill-rule="evenodd" fill="#1D1D1F" d="M1.014 7.246c0-1.887 1.53-3.39 3.417-3.39a3.371 3.371 0 0 1 3.39 3.39 3.389 3.389 0 0 1-3.39 3.39c-1.887 0-3.417-1.531-3.417-3.39zm.464 7.606h5.906v28.764H1.478V14.852zm27.453-10.69c7.655 0 12.986 5.277 12.986 12.96 0 7.71-5.44 13.014-13.178 13.014h-8.476v13.48h-6.124V4.162h14.792zm-8.668 20.834h7.027c5.332 0 8.366-2.871 8.366-7.847 0-4.976-3.034-7.82-8.339-7.82h-7.054v15.667zM46.116 4.162h5.852v15.503h.136c1.586-3.364 4.73-5.305 9.105-5.305 6.316 0 10.089 4.211 10.089 10.718v18.538h-5.933v-17.39c0-4.237-2.133-6.78-6.289-6.78-4.374 0-7.054 3.007-7.054 7.546v16.624h-5.906V4.162zm29.308 25.072c0-9.241 5.441-14.901 13.644-14.901 8.202 0 13.643 5.66 13.643 14.901 0 9.269-5.413 14.929-13.643 14.929s-13.644-5.66-13.644-14.929zm21.272 0c0-6.37-3.008-10.034-7.628-10.034-4.621 0-7.629 3.664-7.629 10.034 0 6.398 3.008 10.062 7.629 10.062 4.648 0 7.628-3.664 7.628-10.062zm10.36-14.382h5.633v4.813h.136c1.559-3.281 4.621-5.305 9.051-5.305 6.343 0 9.979 4.047 9.979 10.636v18.62h-5.933V26.145c0-4.32-2.023-6.699-6.125-6.699-4.155 0-6.835 2.952-6.835 7.409v16.761h-5.906V14.852zm54.928 20.315c-.82 5.25-5.797 8.996-12.386 8.996-8.448 0-13.561-5.715-13.561-14.792 0-9.023 5.195-15.038 13.315-15.038 7.984 0 12.96 5.632 12.96 14.354v2.024h-20.314v.355c0 5.003 3.007 8.312 7.737 8.312 3.363 0 5.851-1.695 6.644-4.211h5.605zm-19.96-8.585h14.382c-.136-4.402-2.925-7.492-7.054-7.492-4.128 0-7.026 3.144-7.328 7.492zm41.714 1.844c.226 1.44 1.677 2.296 3.628 2.296 1.916 0 3.224-.928 3.224-2.189 0-1.13-.808-1.773-2.962-2.213l-1.808-.357c-3.427-.678-5.104-2.32-5.104-4.877 0-3.141 2.737-5.224 6.555-5.224 4.009 0 6.532 2.095 6.592 5.247h-3.392c-.118-1.463-1.391-2.344-3.2-2.344-1.772 0-2.962.833-2.962 2.094 0 1.059.832 1.714 2.855 2.118l1.82.369c3.629.726 5.211 2.189 5.211 4.795 0 3.355-2.629 5.472-6.924 5.472-4.093 0-6.817-1.951-6.924-5.187h3.391zm24.315 4.902h-11.374V16.16h11.374v2.963h-7.781v4.14h7.34v2.76h-7.34v4.33h7.781v2.975zm-5.882-27.263l1.459.004c.389 0 .779.005 1.183.017.727.019 1.584.059 2.427.211.77.137 1.449.36 2.084.685a6.875 6.875 0 0 1 3.016 3.023c.318.622.542 1.303.681 2.068.152.853.192 1.748.21 2.436.011.394.015.791.017 1.171l.004 16.671-.004 1.464c-.002.391-.006.79-.017 1.189-.018.683-.058 1.575-.208 2.418a7.352 7.352 0 0 1-.687 2.091 6.902 6.902 0 0 1-3.016 3.014 7.397 7.397 0 0 1-2.081.683c-.847.151-1.702.191-2.436.21-.397.011-.792.015-1.17.018l-1.461.003-16.66-.003c-.396-.003-.79-.006-1.197-.018-.725-.019-1.579-.059-2.423-.209a7.467 7.467 0 0 1-2.082-.681 6.93 6.93 0 0 1-3.021-3.02 7.331 7.331 0 0 1-.683-2.079c-.152-.854-.192-1.748-.21-2.435a62.273 62.273 0 0 1-.019-1.176l-.002-16.669.002-1.45c.004-.407.008-.801.019-1.199.018-.682.058-1.573.208-2.417a7.47 7.47 0 0 1 .68-2.081 6.886 6.886 0 0 1 3.021-3.024 7.414 7.414 0 0 1 2.091-.685c.835-.151 1.69-.19 2.428-.209.394-.012.784-.017 1.165-.017l16.682-.004m.001-3.629l-16.684.003c-.42.001-.843.007-1.27.019-.869.023-1.9.073-2.966.265a10.978 10.978 0 0 0-3.093 1.023 10.488 10.488 0 0 0-2.666 1.936 10.59 10.59 0 0 0-1.939 2.668 11.026 11.026 0 0 0-1.021 3.091c-.193 1.081-.244 2.154-.265 2.965-.012.422-.016.842-.02 1.275l-.002 1.465.002 16.692c.004.421.008.842.02 1.258.021.815.072 1.888.265 2.971.204 1.13.537 2.139 1.023 3.092a10.557 10.557 0 0 0 4.605 4.603c.952.484 1.964.818 3.089 1.02 1.07.191 2.101.243 2.97.265.422.013.843.017 1.266.02l16.686.003 1.469-.003c.423-.003.844-.007 1.267-.02.868-.022 1.899-.074 2.969-.265a10.962 10.962 0 0 0 3.088-1.02 10.554 10.554 0 0 0 4.605-4.602c.485-.95.82-1.96 1.024-3.095.193-1.081.244-2.154.265-2.964.012-.425.016-.85.018-1.268l.004-1.472-.004-16.682a53.47 53.47 0 0 0-.018-1.269c-.021-.815-.072-1.888-.265-2.972a11.027 11.027 0 0 0-1.023-3.086 10.516 10.516 0 0 0-4.603-4.605 10.899 10.899 0 0 0-3.089-1.023c-1.07-.193-2.101-.243-2.972-.266a49.084 49.084 0 0 0-1.269-.019l-1.466-.003z"/></svg>